# xmcd
#
# Track frame offsets:
#	182
#	15917
#	38737
#	62100
#	83872
#	101235
#	116002
#	150362
#	175245
#
# Disc length: 2783 seconds
#
# Revision: 5
# Processed by: cddbd v1.5.2PL0 Copyright (c) Steve Scherf et al.
# Submitted via: EasyCDDAExtractor 16.0.6.1
#
DISCID=650add09
DTITLE=B.B. King - Jazz and Blues Collection - B.B. King - Cd 10
DYEAR=1972
DGENRE=Blues
TTITLE0=Introduction
TTITLE1=The thrill is gone
TTITLE2=Sweet little angel
TTITLE3=Nobody loves me but my mother
TTITLE4=Guess who
TTITLE5=King's shuffle
TTITLE6=Outside help
TTITLE7=I've got a mind to give up living
TTITLE8=Ain't nobody home
EXTD=ID3G: 0
EXTT0=
EXTT1=
EXTT2=
EXTT3=
EXTT4=
EXTT5=
EXTT6=
EXTT7=
EXTT8=
PLAYORDER=
